<?xml version="1.0" standalone="no"?>
<!DOCTYPE svg PUBLIC "-//W3C//DTD SVG 20010904//EN"
 "http://www.w3.org/TR/2001/REC-SVG-20010904/DTD/svg10.dtd">
<svg version="1.0" xmlns="http://www.w3.org/2000/svg"
 width="625.000000pt" height="399.000000pt" viewBox="0 0 625.000000 399.000000"
 preserveAspectRatio="xMidYMid meet">

<g transform="translate(0.000000,399.000000) scale(0.100000,-0.100000)"
fill="#000000" stroke="none">
<path d="M2849 3783 c-46 -51 -73 -83 -68 -83 3 0 28 27 57 60 59 66 66 81 11
23z"/>
<path d="M2618 3713 c7 -3 16 -2 19 1 4 3 -2 6 -13 5 -11 0 -14 -3 -6 -6z"/>
<path d="M2524 3521 l27 -29 -33 -20 c-19 -12 -43 -31 -54 -43 -10 -12 7 -2
39 21 l58 43 -28 29 c-15 15 -29 28 -32 28 -2 0 8 -13 23 -29z"/>
<path d="M3085 3510 c-5 -8 -26 -10 -65 -5 -102 12 -312 -32 -333 -70 -19 -34
-21 -195 -3 -254 9 -30 16 -59 16 -65 0 -18 -49 37 -91 101 -23 35 -46 60 -50
56 -4 -4 -9 -42 -11 -83 l-3 -75 -25 75 c-27 83 -28 85 -35 78 -3 -2 1 -25 9
-51 13 -42 12 -47 -5 -63 -15 -13 -19 -33 -21 -88 l-1 -71 -6 65 -6 65 -37
-38 c-46 -47 -47 -37 -8 83 16 50 27 97 22 104 -4 8 -18 9 -37 5 l-30 -7 34
-1 c27 -1 32 -4 26 -18 -22 -56 -55 -181 -51 -195 2 -10 0 -18 -5 -18 -5 0 -9
-6 -9 -12 1 -7 18 6 39 30 21 23 41 42 45 42 3 0 6 -47 6 -104 0 -58 4 -107 8
-110 4 -2 16 18 26 47 15 41 20 47 28 34 5 -9 18 -17 28 -17 11 0 26 -12 35
-30 22 -43 18 -60 -6 -22 -12 17 -23 32 -25 32 -8 0 -34 -60 -33 -77 0 -10 6
-3 13 16 11 31 13 33 21 15 4 -10 7 -27 6 -36 -1 -12 3 -16 12 -12 18 7 33
-13 41 -55 5 -29 4 -32 -12 -27 -13 5 -13 2 4 -12 24 -21 38 -62 20 -62 -7 0
-27 11 -46 25 -19 14 -34 25 -34 25 -1 0 -1 -25 -2 -56 -1 -50 1 -54 13 -38 7
10 13 21 13 26 0 4 5 8 10 8 6 0 10 -24 10 -52 0 -65 15 -96 25 -52 11 48 13
51 14 14 2 -63 14 -140 21 -135 4 2 8 30 9 62 1 31 4 59 7 62 9 9 24 -23 20
-42 -3 -14 -1 -16 9 -7 22 18 27 -18 6 -48 -11 -15 -27 -64 -35 -109 -9 -46
-20 -91 -24 -101 -13 -34 -70 -91 -106 -106 -19 -8 -65 -34 -103 -59 -37 -24
-84 -52 -103 -62 -103 -52 -197 -125 -235 -181 l-39 -59 -3 -190 c-3 -187 18
-546 38 -657 5 -31 27 -106 49 -166 21 -61 42 -134 46 -163 9 -69 43 -108 102
-116 l42 -6 0 -63 c0 -64 -8 -92 -92 -317 -22 -60 -38 -111 -35 -114 11 -10
25 7 50 60 46 97 79 95 92 -7 11 -91 22 -75 41 57 3 26 9 47 13 47 3 0 30 -23
59 -51 30 -28 56 -49 58 -46 4 4 -50 170 -77 234 -22 54 0 67 129 73 95 5 117
10 197 44 50 21 95 42 100 46 6 4 47 23 93 43 56 24 85 32 88 24 9 -24 32
-162 28 -166 -2 -2 -4 1 -4 7 0 7 -7 12 -15 12 -8 0 -15 -8 -15 -19 0 -14 -6
-17 -25 -13 -18 3 -25 0 -25 -12 0 -16 -11 -20 -39 -17 -7 2 -10 -2 -6 -8 3
-6 2 -11 -4 -11 -5 0 -12 6 -14 13 -4 9 -6 9 -6 0 -1 -7 -8 -13 -17 -13 -8 0
-22 -7 -30 -15 -9 -8 -27 -18 -42 -21 -15 -4 -39 -15 -53 -25 -14 -10 -29 -16
-32 -13 -3 3 -4 -1 -3 -10 1 -9 8 -22 14 -28 7 -7 12 -17 12 -23 0 -11 33 -48
68 -77 18 -14 21 -14 26 -2 3 9 1 12 -4 9 -6 -3 -10 -1 -10 4 0 6 13 11 28 11
15 0 33 5 40 12 9 9 12 7 12 -10 0 -13 6 -22 16 -22 12 0 11 6 -7 32 -21 28
-23 29 -30 12 -5 -13 -8 -14 -8 -4 0 8 4 22 9 30 6 10 10 11 10 3 0 -7 4 -13
10 -13 5 0 7 7 4 15 -4 9 0 15 7 15 8 0 27 14 44 31 17 18 37 28 46 26 13 -3
16 0 12 11 -5 11 -2 14 9 9 10 -3 19 0 22 9 3 8 9 14 14 14 12 0 40 -125 48
-212 l6 -68 169 0 169 0 0 58 c0 52 3 61 31 88 17 16 54 61 82 99 134 184 183
217 260 179 36 -18 87 -63 87 -77 0 -13 27 -37 34 -30 3 4 6 -14 6 -38 0 -39
-5 -47 -38 -72 -21 -15 -48 -40 -60 -55 -43 -54 -112 -144 -112 -148 0 -2 77
-4 171 -4 166 0 171 1 166 20 -3 11 -1 18 4 14 14 -9 9 68 -7 101 -8 17 -12
21 -8 10 11 -39 16 -75 11 -75 -3 0 -15 25 -27 56 -16 43 -18 59 -9 70 21 25
6 123 -30 196 -18 37 -43 75 -54 85 -20 17 -20 17 1 -13 12 -18 35 -60 52 -95
32 -69 37 -120 16 -179 -12 -33 -13 -32 -12 35 1 68 -1 75 -71 213 -48 94 -67
142 -58 142 9 0 15 15 18 43 3 40 4 39 6 -13 2 -30 7 -66 12 -80 9 -26 6 40
-7 153 l-7 57 36 0 c56 0 102 47 156 160 55 117 53 110 54 195 0 50 3 63 8 45
5 -14 5 -1 2 30 -8 63 -8 87 2 151 5 30 3 49 -4 53 -7 5 -9 1 -5 -8 3 -9 2
-16 -3 -16 -6 0 -17 19 -26 43 l-17 42 21 -25 c14 -18 18 -19 11 -5 -5 11 -13
45 -17 75 -4 30 -15 80 -25 110 -16 48 -17 57 -4 71 8 8 14 34 14 56 0 41 -37
179 -46 170 -2 -2 0 -17 6 -32 6 -15 9 -30 6 -32 -2 -2 -9 11 -15 29 -6 19
-27 58 -46 88 -36 56 -39 73 -8 49 17 -13 17 -13 3 6 -24 34 -43 45 -74 45
-17 0 -44 9 -61 20 -16 11 -34 20 -39 20 -6 0 10 -13 35 -28 38 -25 110 -102
95 -102 -3 0 -23 15 -43 34 -60 53 -343 162 -443 171 -28 2 -117 42 -126 57
-3 5 -12 4 -20 -3 -11 -9 -16 -6 -24 16 -14 38 -13 148 1 139 21 -12 0 49 -23
69 -11 9 -31 17 -43 17 -14 0 -26 7 -29 18 -6 21 1 -50 10 -94 l6 -32 -63 -7
c-35 -4 -83 -11 -107 -16 -52 -11 -97 -3 -82 16 7 9 6 16 -4 24 -10 8 -16 9
-21 1 -3 -5 -13 -10 -21 -10 -8 0 -12 5 -9 10 3 6 0 10 -9 10 -8 0 -17 6 -19
13 -4 10 -6 10 -6 0 -1 -7 -6 -13 -12 -13 -5 0 -7 6 -4 13 4 6 0 5 -7 -4 -10
-12 -19 -14 -36 -8 -15 6 -21 5 -17 -1 14 -22 -16 -8 -48 23 -23 22 -38 48
-46 82 -6 28 -14 59 -18 69 -5 17 -2 17 28 -4 26 -18 22 -11 -18 30 -29 29
-55 61 -58 71 -4 11 -10 19 -15 19 -14 0 -47 118 -55 197 -4 40 -4 99 0 131 6
55 9 61 43 79 20 11 51 24 67 28 42 10 124 12 119 3 -3 -5 0 -8 6 -8 7 0 9 8
5 19 -5 18 2 20 100 26 90 6 109 5 131 -10 17 -11 37 -15 55 -11 36 7 116 -17
152 -46 28 -23 28 -24 29 -138 0 -63 4 -101 7 -85 5 23 12 30 28 29 12 0 20 3
17 8 -3 4 -12 8 -20 8 -19 0 -18 40 2 68 8 12 24 22 36 22 17 0 19 4 13 28 -8
30 -24 139 -25 161 0 23 12 5 21 -31 l8 -33 -3 33 c-2 26 0 32 13 27 13 -5 13
-4 -1 12 -8 10 -18 30 -22 45 -3 14 -24 57 -46 96 -22 38 -40 80 -40 93 0 14
-4 19 -9 14 -5 -6 -6 -33 -1 -65 4 -30 10 -93 13 -140 l6 -85 -19 55 c-23 71
-49 124 -114 235 -52 86 -76 109 -91 85z m23 -96 c22 -5 32 -12 32 -25 0 -11
4 -19 9 -19 4 0 22 -31 39 -70 17 -38 27 -70 21 -70 -5 0 -9 -5 -9 -11 0 -5 4
-8 9 -5 5 3 8 -2 7 -12 -1 -19 -36 -38 -45 -23 -4 5 -60 14 -126 21 -99 9
-135 8 -207 -5 -47 -8 -98 -19 -112 -24 -24 -10 -26 -8 -36 27 -5 20 -10 53
-9 72 l0 35 19 -41 c38 -87 46 -57 19 71 -13 66 6 60 26 -7 31 -102 35 -107
111 -103 81 3 124 29 124 76 0 24 -6 33 -32 44 -26 11 -28 14 -12 15 20 0 52
26 43 34 -2 2 -25 2 -52 -1 -39 -5 -53 -12 -84 -47 -21 -22 -41 -40 -46 -38
-5 1 -6 -2 -3 -7 3 -5 3 -17 -1 -27 -4 -12 -10 -3 -19 32 -8 27 -16 59 -20 71
-5 19 0 22 48 32 29 6 62 13 73 15 25 6 189 -1 233 -10z m-223 -86 c-7 -27 17
-64 34 -54 6 4 8 18 5 33 -6 21 -3 24 12 21 23 -4 30 -34 14 -53 -15 -18 -61
-20 -78 -3 -23 23 -14 68 16 77 1 1 0 -9 -3 -21z m-42 -58 c16 -19 16 -20 -13
-20 -28 0 -30 2 -20 20 6 11 12 20 13 20 1 0 10 -9 20 -20z m197 -1091 c0 -15
-4 -30 -8 -33 -9 -6 -10 -1 -15 57 -2 34 -1 36 10 21 7 -10 13 -30 13 -45z
m73 -589 c-10 -12 -21 28 -20 74 l0 51 12 -60 c6 -33 10 -62 8 -65z m980 53
c3 -16 9 -37 12 -48 6 -16 3 -16 -14 5 -21 25 -29 70 -12 70 5 0 11 -12 14
-27z m-972 -110 c1 -16 3 -37 4 -48 9 -59 12 -145 5 -145 -14 0 -20 31 -10 51
8 13 7 19 0 19 -6 0 -10 12 -9 28 0 15 -2 48 -5 75 -3 28 -2 47 4 47 6 0 11
-12 11 -27z m1006 -5 c-3 -8 -6 -5 -6 6 -1 11 2 17 5 13 3 -3 4 -12 1 -19z
m-330 -106 l-6 -28 71 23 c87 29 102 29 95 4 -3 -15 1 -21 16 -23 29 -4 32
-24 8 -45 -12 -9 -21 -22 -21 -29 0 -25 -83 -73 -129 -74 -11 0 -11 3 -1 15 7
8 8 15 2 15 -5 0 -15 -7 -22 -15 -14 -17 -116 -19 -126 -3 -4 6 8 30 25 54
l31 44 -25 0 c-24 0 -35 -15 -15 -22 18 -6 -31 -68 -54 -68 -33 0 -37 9 -20
43 20 37 55 71 114 108 56 36 64 36 57 1z m-219 -107 c-27 -18 -59 -27 -125
-35 -125 -14 -133 -13 -133 10 0 13 9 22 25 26 49 12 131 22 200 23 l70 1 -37
-25z m-650 -57 c2 -9 -5 -18 -15 -20 -10 -3 8 -8 40 -12 31 -5 57 -12 57 -16
0 -4 -8 -14 -18 -24 -11 -9 -25 -34 -32 -55 -11 -33 -19 -41 -51 -49 -21 -5
-55 -6 -76 -2 -21 4 -69 15 -108 23 -38 8 -87 12 -107 10 -33 -5 -38 -3 -38
15 0 11 -3 27 -6 36 -5 12 1 16 25 16 17 0 61 12 98 26 38 14 97 29 133 33
l65 8 -51 2 c-28 0 -70 -6 -93 -14 -30 -10 -49 -12 -67 -5 -14 6 -37 10 -51
10 -15 0 -23 3 -20 7 15 15 138 31 222 30 75 -2 90 -5 93 -19z m105 -80 c-7
-39 -13 -49 -13 -22 0 14 -2 16 -9 5 -5 -7 -11 -9 -14 -4 -7 11 20 53 33 53 5
0 7 -15 3 -32z m1058 -309 c-35 -75 -38 -74 -11 5 22 66 32 84 37 70 2 -6 -10
-39 -26 -75z m-861 -301 c0 -6 -6 -5 -15 2 -8 7 -15 14 -15 16 0 2 7 1 15 -2
8 -4 15 -11 15 -16z m0 -48 c0 -5 -5 -10 -11 -10 -5 0 -7 5 -4 10 3 6 8 10 11
10 2 0 4 -4 4 -10z m0 -24 c0 -3 -4 -8 -10 -11 -5 -3 -10 -1 -10 4 0 6 5 11
10 11 6 0 10 -2 10 -4z m7 -57 c0 -26 -3 -36 -8 -27 -14 21 -10 68 6 68 1 0 2
-18 2 -41z m19 -121 c16 -77 17 -81 4 -73 -6 4 -8 11 -5 16 4 5 2 9 -4 9 -5 0
-10 8 -9 18 0 9 -3 37 -6 61 -8 62 4 44 20 -31z"/>
<path d="M3760 1349 c-11 -8 -12 -12 -3 -15 7 -3 9 -13 6 -22 -5 -13 -3 -14 6
-6 7 7 11 21 9 33 -2 16 -6 18 -18 10z"/>
<path d="M2414 3388 c-31 -36 -47 -58 -41 -58 3 0 20 18 37 40 34 43 36 55 4
18z"/>
<path d="M3376 3377 c3 -10 9 -15 12 -12 3 3 0 11 -7 18 -10 9 -11 8 -5 -6z"/>
<path d="M3520 3345 c14 -17 12 -18 -48 -13 -34 3 -65 2 -68 -4 -3 -5 0 -30 6
-56 11 -42 21 -54 96 -112 111 -87 154 -108 249 -121 77 -12 81 -14 123 -60
23 -26 62 -74 86 -106 42 -58 44 -59 122 -77 43 -10 101 -27 128 -37 28 -10
51 -18 52 -16 1 1 -45 45 -103 97 -57 52 -121 110 -141 129 -86 79 -162 130
-219 145 -82 23 -129 42 -199 79 -33 18 -91 48 -127 67 -44 22 -67 40 -67 52
0 15 9 14 83 -12 45 -16 127 -36 182 -45 181 -30 320 -90 411 -177 l31 -29 20
24 c10 13 32 32 48 40 32 17 75 52 75 60 0 8 -153 79 -223 103 -119 40 -214
56 -295 48 -73 -6 -173 7 -217 29 -18 9 -19 9 -5 -8z"/>
<path d="M2326 3290 c-14 -22 -25 -40 -22 -40 7 0 58 71 53 76 -2 2 -16 -14
-31 -36z"/>
<path d="M3435 3130 c10 -11 20 -20 23 -20 3 0 -3 9 -13 20 -10 11 -20 20 -23
20 -3 0 3 -9 13 -20z"/>
<path d="M2694 3058 c-16 -12 -31 -23 -33 -25 -2 -1 2 -9 9 -18 11 -13 15 -12
36 10 13 14 31 25 41 25 17 -1 17 -1 1 -11 -36 -20 -15 -80 27 -78 17 1 16 2
-5 8 -25 7 -43 51 -21 51 6 0 11 -7 11 -15 0 -8 5 -15 10 -15 6 0 10 5 10 10
0 6 7 10 16 10 10 0 14 6 10 15 -8 21 4 19 31 -7 13 -12 23 -17 23 -11 0 15
-41 50 -73 62 -41 16 -61 14 -93 -11z"/>
<path d="M3105 3068 c-34 -20 -59 -47 -50 -55 4 -5 10 -2 12 5 3 7 13 17 23
22 15 8 17 6 13 -9 -3 -11 0 -28 6 -38 10 -16 11 -16 8 6 -1 13 4 26 12 29 10
3 12 0 8 -12 -8 -20 10 -21 30 -1 12 12 13 19 3 30 -10 12 -10 15 1 15 20 -1
49 -25 49 -41 0 -10 5 -8 18 5 16 16 16 18 -7 37 -26 22 -94 25 -126 7z"/>
<path d="M3412 2948 c7 -15 15 -23 17 -17 2 6 -4 18 -13 27 -15 15 -15 15 -4
-10z"/>
<path d="M3355 2930 c-19 -36 -16 -38 13 -5 12 13 17 27 12 30 -5 3 -16 -8
-25 -25z"/>
<path d="M2492 2880 c0 -19 2 -27 5 -17 2 9 2 25 0 35 -3 9 -5 1 -5 -18z"/>
<path d="M3401 2884 c0 -11 3 -14 6 -6 3 7 2 16 -1 19 -3 4 -6 -2 -5 -13z"/>
<path d="M3432 2850 c0 -19 2 -27 5 -17 2 9 2 25 0 35 -3 9 -5 1 -5 -18z"/>
<path d="M2640 2850 c-9 -6 -10 -10 -3 -10 6 0 15 5 18 10 8 12 4 12 -15 0z"/>
<path d="M3356 2824 c-4 -9 -4 -19 -1 -22 2 -3 7 3 11 12 4 9 4 19 1 22 -2 3
-7 -3 -11 -12z"/>
<path d="M2482 2800 c0 -14 2 -19 5 -12 2 6 2 18 0 25 -3 6 -5 1 -5 -13z"/>
<path d="M2550 2805 c0 -15 18 -40 24 -34 3 3 -1 14 -9 25 -8 10 -14 15 -15 9z"/>
<path d="M3295 2775 c-4 -22 -12 -51 -17 -64 -8 -23 -9 -23 -24 -5 -14 18 -15
18 -5 -3 18 -37 13 -50 -49 -116 -105 -113 -205 -149 -310 -112 -57 20 -63 18
-17 -6 21 -11 60 -23 87 -26 42 -5 56 -1 107 27 32 18 81 53 108 78 l50 45 5
-49 5 -49 9 40 c5 22 8 44 7 49 -1 5 8 33 20 63 15 37 27 53 40 53 10 0 20 4
23 9 3 4 -6 6 -19 3 -24 -4 -24 -3 -14 26 6 17 9 41 7 54 -3 18 -6 14 -13 -17z"/>
<path d="M2654 2768 l-19 -23 23 19 c21 18 27 26 19 26 -2 0 -12 -10 -23 -22z"/>
<path d="M2496 2755 c4 -8 11 -15 16 -15 6 0 5 6 -2 15 -7 8 -14 15 -16 15 -2
0 -1 -7 2 -15z"/>
<path d="M2680 2690 c-6 -11 -8 -20 -6 -20 3 0 10 9 16 20 6 11 8 20 6 20 -3
0 -10 -9 -16 -20z"/>
<path d="M3110 2700 c-8 -5 -26 -7 -40 -4 -21 4 -22 4 -8 -6 19 -11 68 -4 68
11 0 11 -1 11 -20 -1z"/>
<path d="M2780 2695 c0 -2 24 -16 53 -30 28 -14 44 -19 33 -11 -10 8 -15 20
-11 26 4 7 -1 9 -18 5 -14 -4 -28 -2 -31 4 -7 11 -26 15 -26 6z"/>
<path d="M3280 2623 c0 -5 5 -15 10 -23 8 -12 10 -11 10 8 0 12 -4 22 -10 22
-5 0 -10 -3 -10 -7z"/>
<path d="M4192 1090 c0 -14 2 -19 5 -12 2 6 2 18 0 25 -3 6 -5 1 -5 -13z"/>
<path d="M4180 1015 c-7 -9 -8 -15 -2 -15 5 0 12 7 16 15 3 8 4 15 2 15 -2 0
-9 -7 -16 -15z"/>
<path d="M2981 124 c0 -11 3 -14 6 -6 3 7 2 16 -1 19 -3 4 -6 -2 -5 -13z"/>
<path d="M3623 107 c-25 -11 -31 -27 -10 -27 8 -1 7 -5 -4 -13 -9 -7 -18 -19
-22 -27 -5 -13 -6 -13 -6 0 -1 9 4 21 11 28 9 9 9 12 -1 12 -7 0 -15 -8 -17
-17 -3 -10 -19 -28 -37 -40 l-32 -23 40 0 c47 1 71 16 80 53 4 15 11 27 15 27
11 0 21 28 12 33 -4 3 -17 0 -29 -6z"/>
<path d="M2884 75 c-29 -29 -36 -61 -14 -62 21 -2 43 36 38 64 -3 19 -3 19
-24 -2z"/>
</g>
</svg>
